# This model has a relatively low poly count which makes it good to test.
# I created this for a different a project quite a while ago. Now it has a comback.
# Feel free to use this model. MIT license
# Blender v2.78 (sub 0) OBJ File: 'LowPolyTree1.blend'
# www.blender.org
mtllib LowPolyTree1.mtl
o Cone.003
v 0.015941 0.366266 -0.065994
v 0.062097 0.366232 -0.029033
v 0.055137 0.368465 0.027547
v 0.000024 0.462524 0.000395
v 0.013139 0.368909 0.060608
v -0.038990 0.368827 0.048023
v -0.068238 0.366696 -0.000580
v -0.041499 0.366706 -0.053649
vt 0.3018 0.3920
vt 0.3503 0.2302
vt 0.3503 0.3926
vt 0.1243 0.6038
vt 0.1243 0.7674
vt 0.0761 0.6124
vt 0.0225 0.6421
vt 0.8380 0.6447
vt 0.8380 0.8013
vt 0.7919 0.6461
vt 0.7318 0.6711
vt 0.2163 0.3188
vt 0.2429 0.3592
vt 0.4835 0.5857
vt 0.4173 0.5716
vt 0.3952 0.5097
vt 0.4211 0.4539
vt 0.4809 0.4398
vt 0.5359 0.4747
vt 0.5359 0.5432
vn 0.5263 0.5400 -0.6568
vn 0.8490 0.5217 0.0839
vn 0.5359 0.5085 0.6739
vn -0.2027 0.5095 0.8363
vn -0.7402 0.5230 0.4225
vn -0.7520 0.5395 -0.3788
vn -0.1729 0.5397 -0.8239
vn 0.0008 -0.9997 0.0226
usemtl Material.001
s off
f 1/1/1 4/2/1 2/3/1
f 2/4/2 4/5/2 3/6/2
f 3/6/3 4/5/3 5/7/3
f 5/8/4 4/9/4 6/10/4
f 6/10/5 4/9/5 7/11/5
f 7/12/6 4/2/6 8/13/6
f 8/13/7 4/2/7 1/1/7
f 1/14/8 2/15/8 3/16/8 5/17/8 6/18/8 7/19/8 8/20/8
o Cone.002
v -0.033604 0.289148 -0.096683
v 0.055066 0.289094 -0.087455
v 0.092381 0.292575 -0.010033
v 0.000353 0.439194 0.000481
v 0.066085 0.293267 0.066138
v -0.010279 0.293139 0.092692
v -0.087001 0.289817 0.054912
v -0.096373 0.289833 -0.034187
vt 0.4807 0.1844
vt 0.5292 0.0226
vt 0.5292 0.1850
vt 0.4971 0.6309
vt 0.4971 0.7944
vt 0.4488 0.6395
vt 0.3952 0.6692
vt 0.8377 0.4398
vt 0.8377 0.5964
vt 0.7917 0.4412
vt 0.7315 0.4662
vt 0.3952 0.1111
vt 0.4218 0.1516
vt 0.2979 0.5837
vt 0.2317 0.5696
vt 0.2096 0.5077
vt 0.2355 0.4519
vt 0.2953 0.4378
vt 0.3503 0.4727
vt 0.3503 0.5412
vn 0.0883 0.5273 -0.8451
vn 0.7662 0.5090 -0.3922
vn 0.8222 0.4960 0.2793
vn 0.2843 0.4969 0.8199
vn -0.3976 0.5104 0.7625
vn -0.8453 0.5268 0.0890
vn -0.5968 0.5269 -0.6052
vn 0.0133 -0.9997 0.0192
usemtl Material.001
s off
f 9/21/9 12/22/9 10/23/9
f 10/24/10 12/25/10 11/26/10
f 11/26/11 12/25/11 13/27/11
f 13/28/12 12/29/12 14/30/12
f 14/30/13 12/29/13 15/31/13
f 15/32/14 12/22/14 16/33/14
f 16/33/15 12/22/15 9/21/15
f 9/34/16 10/35/16 11/36/16 13/37/16 14/38/16 15/39/16 16/40/16
o Cone.001
v -0.006801 0.199150 -0.136558
v 0.103412 0.199078 -0.091456
v 0.122198 0.203727 0.021803
v 0.000272 0.399582 0.000749
v 0.059904 0.204652 0.109588
v -0.047959 0.204481 0.114975
v -0.132142 0.200044 0.037752
v -0.110724 0.200066 -0.079991
vt 0.3018 0.1844
vt 0.3503 0.0226
vt 0.3503 0.1850
vt 0.3115 0.6289
vt 0.3115 0.7924
vt 0.2632 0.6375
vt 0.2096 0.6672
vt 0.6869 0.6447
vt 0.6869 0.8013
vt 0.6409 0.6461
vt 0.5808 0.6711
vt 0.2163 0.1111
vt 0.2429 0.1516
vt 0.1108 0.5586
vt 0.0445 0.5446
vt 0.0225 0.4827
vt 0.0484 0.4269
vt 0.1081 0.4128
vt 0.1631 0.4477
vt 0.1631 0.5161
vn 0.3221 0.5273 -0.7863
vn 0.8455 0.5090 -0.1611
vn 0.7106 0.4960 0.4990
vn 0.0425 0.4969 0.8667
vn -0.5958 0.5104 0.6201
vn -0.8363 0.5268 -0.1520
vn -0.4027 0.5269 -0.7484
vn 0.0074 -0.9997 0.0222
usemtl Material.001
s off
f 17/41/17 20/42/17 18/43/17
f 18/44/18 20/45/18 19/46/18
f 19/46/19 20/45/19 21/47/19
f 21/48/20 20/49/20 22/50/20
f 22/50/21 20/49/21 23/51/21
f 23/52/22 20/42/22 24/53/22
f 24/53/23 20/42/23 17/41/23
f 17/54/24 18/55/24 19/56/24 21/57/24 22/58/24 23/59/24 24/60/24
o Cone
v -0.035837 0.103890 -0.160025
v 0.103614 0.103804 -0.129150
v 0.148875 0.109380 0.000896
v 0.000000 0.349362 0.000000
v 0.101833 0.105038 0.128458
v -0.034340 0.110599 0.145916
v -0.135045 0.110316 0.064018
v -0.148704 0.104841 -0.070760
vt 0.4731 0.2302
vt 0.5219 0.3946
vt 0.4132 0.2619
vt 0.3952 0.3016
vt 0.0225 0.9402
vt 0.1139 0.8126
vt 0.0491 0.9705
vt 0.1139 0.9774
vt 0.6866 0.4398
vt 0.6866 0.5995
vt 0.6404 0.4413
vt 0.5808 0.4655
vt 0.5219 0.2303
vt 0.6271 0.2302
vt 0.6908 0.2534
vt 0.7041 0.3177
vt 0.6743 0.3751
vt 0.6091 0.3751
vt 0.5668 0.3302
vt 0.5686 0.2655
vn 0.1853 0.5175 -0.8354
vn 0.8102 0.5015 -0.3035
vn 0.8062 0.5013 0.3144
vn 0.1301 0.5033 0.8542
vn -0.5503 0.4916 0.6749
vn -0.8610 0.5043 0.0668
vn -0.5285 0.5164 -0.6738
vn -0.0034 -0.9998 0.0180
usemtl Material.001
s off
f 25/61/25 28/62/25 26/63/25
f 26/63/26 28/62/26 27/64/26
f 27/65/27 28/66/27 29/67/27
f 29/67/28 28/66/28 30/68/28
f 30/69/29 28/70/29 31/71/29
f 31/71/30 28/70/30 32/72/30
f 32/73/31 28/62/31 25/61/31
f 25/74/32 26/75/32 27/76/32 29/77/32 30/78/32 31/79/32 32/80/32
o Cylinder
v 0.005997 0.000000 -0.035688
v -0.005997 0.200000 -0.035688
v 0.036508 0.000000 -0.008464
v 0.026342 0.200000 -0.024813
v 0.035413 0.200000 0.004498
v 0.015423 0.000000 0.034156
v 0.021860 0.200000 0.028221
v -0.021860 0.000000 0.028221
v -0.015423 0.200000 0.034156
v -0.036172 0.000000 0.001081
v -0.036508 0.200000 -0.008464
v -0.023414 0.000000 -0.026945
vt 0.5866 0.1732
vt 0.5802 0.0226
vt 0.6272 0.0226
vt 0.8872 0.4398
vt 0.9502 0.4398
vt 0.9280 0.5904
vt 0.8876 0.5904
vt 0.8155 0.0226
vt 0.8307 0.1732
vt 0.7627 0.1732
vt 0.7849 0.3808
vt 0.7551 0.2302
vt 0.8019 0.2302
vt 0.6506 0.1732
vt 0.6825 0.0226
vt 0.9704 0.5904
vt 0.8493 0.2302
vt 0.8472 0.3808
vt 0.7453 0.0226
vt 0.6898 0.1732
vt 0.0651 0.1625
vt 0.0279 0.0927
vt 0.0877 0.0285
vt 0.1565 0.0550
vt 0.1690 0.1098
vt 0.1329 0.1602
vt 0.1061 0.3645
vt 0.0468 0.3461
vt 0.0252 0.2879
vt 0.0749 0.2266
vt 0.1571 0.2581
vt 0.1588 0.3317
vn 0.6655 -0.0271 -0.7459
vn 0.8863 -0.0200 0.4627
vn -0.1572 -0.0242 0.9873
vn -0.9099 -0.0213 -0.4142
vn -0.2849 -0.0171 -0.9584
vn 0.3187 0.0191 -0.9477
vn 0.9550 0.0244 -0.2955
vn -0.8916 0.0177 0.4524
vn 0.1572 0.0242 0.9873
vn -0.6656 0.0254 -0.7459
vn 0.0000 1.0000 0.0000
vn 0.0000 -1.0000 0.0000
usemtl Material.002
s off
f 36/81/33 35/82/33 33/83/33
f 38/84/34 35/85/34 37/86/34 39/87/34
f 41/88/35 40/89/35 38/90/35
f 43/91/36 44/92/36 42/93/36
f 34/94/37 33/83/37 44/95/37
f 34/94/38 36/81/38 33/83/38
f 36/96/39 37/86/39 35/85/39
f 42/93/40 40/97/40 41/98/40 43/91/40
f 39/99/41 41/88/41 38/90/41
f 43/100/42 34/94/42 44/95/42
f 34/101/43 43/102/43 41/103/43 39/104/43 37/105/43 36/106/43
f 42/107/44 44/108/44 33/109/44 35/110/44 38/111/44 40/112/44
